
<svg width="24" height="24" viewBox="0 0 24 24" xmlns="http://www.w3.org/2000/svg">

  <path fill-rule="evenodd" clip-rule="evenodd" d="m 10.045001,7.576 a 3.226,3.226 0 0 1 -1.7299998,0.793 3.248,3.248 0 0 1 -0.422,0.031 3.254,3.254 0 0 1 -3.209,-2.77 3.299,3.299 0 0 1 -0.041,-0.497 c 0,-0.498 0.115,-0.97 0.313,-1.392 a 3.246,3.246 0 0 1 2.937,-1.874 3.258,3.258 0 0 1 3.2499998,3.266 c 0,0.973 -0.426,1.845 -1.098,2.443 z m -4.9379998,4.557 a 3.258,3.258 0 0 1 -3.25,-3.266 3.26,3.26 0 0 1 1.098,-2.443 c 0.57,2.209 2.562,3.843 4.938,3.843 0.05,0 0.1,-0.006 0.15,-0.008 a 3.246,3.246 0 0 1 -2.936,1.874 z M 7.8930012,0 c -2.524,0 -4.615,1.842 -5.028,4.26 A 5.131,5.131 0 0 0 1.1790933e-6,8.867 C 1.1790933e-6,11.702 2.2870012,14 5.1070012,14 c 2.524,0 4.615,-1.841 5.0279998,-4.26 a 5.13,5.13 0 0 0 2.865,-4.607 C 13.000001,2.298 10.713001,0 7.8930012,0 Z" id="path2"/>
</svg>
