<svg width="24" height="24" viewBox="0 0 24 24" xmlns="http://www.w3.org/2000/svg">
<path fill-rule="evenodd" clip-rule="evenodd" d="M20.2397 7.86795L18.0849 9.09198C17.0055 9.70514 15.6599 9.59013 14.7002 8.80268L11.9998 6.587L9.29946 8.80268C8.33976 9.59013 6.99418 9.70515 5.91475 9.09198L3.75994 7.86795L5.60223 17.6935C8.56835 17.1783 10.327 16.8753 12.0647 16.8701C13.8086 16.865 15.5236 17.1588 18.4002 17.6787L20.2397 7.86795ZM2.87381 5.06443C2.13367 4.64399 1.24014 5.28159 1.39701 6.11822L3.81843 19.0325C3.91908 19.5692 4.43669 19.9252 4.97483 19.8321C8.68203 19.1913 10.4091 18.867 12.1355 18.8701C13.8187 18.8731 15.5014 19.1873 19.0178 19.8229C19.5584 19.9206 20.0815 19.5644 20.1827 19.0245L22.6026 6.11822C22.7595 5.28159 21.866 4.64399 21.1259 5.06442L17.0971 7.35297C16.7373 7.55736 16.2887 7.51902 15.9688 7.25653L12.6341 4.52038C12.2654 4.21781 11.7343 4.21781 11.3655 4.52038L8.03083 7.25653C7.71093 7.51902 7.2624 7.55736 6.90259 7.35297L2.87381 5.06443Z"/>
</svg>
