<?xml version="1.0" encoding="iso-8859-1"?>
<!-- Generator: Adobe Illustrator 19.0.0, SVG Export Plug-In . SVG Version: 6.00 Build 0)  -->
<svg version="1.1" id="Capa_1" xmlns="http://www.w3.org/2000/svg" xmlns:xlink="http://www.w3.org/1999/xlink" x="0px" y="0px" viewBox="0 0 496.941 496.941" xml:space="preserve">
<g>
	<g>
		<g>
			<path d="M182.212,304.941c0-37.647-30.871-69.271-69.271-69.271s-69.271,30.871-69.271,69.271
				c0,37.647,30.871,69.271,69.271,69.271S182.212,343.341,182.212,304.941z M59.482,304.941c0-29.365,24.094-54.212,54.212-54.212
				c30.118,0,54.212,24.094,54.212,54.212c0,29.365-24.094,54.212-54.212,54.212C83.576,359.153,59.482,335.059,59.482,304.941z"/>
			<path d="M156.612,378.729H70.024C31.624,378.729,0,410.353,0,448.753v40.659c0,4.518,3.012,7.529,7.529,7.529h211.576
				c4.518,0,7.529-3.012,7.529-7.529v-40.659C226.635,410.353,195.012,378.729,156.612,378.729z M211.576,481.882H15.059v-33.129
				c0-30.118,24.847-54.965,54.965-54.965h86.588c30.118,0,54.965,24.847,54.965,54.965V481.882z"/>
			<path d="M314.729,304.941c0,37.647,30.871,69.271,69.271,69.271c38.4,0,69.271-30.871,69.271-69.271S421.647,236.424,384,236.424
				C345.6,236.424,314.729,267.294,314.729,304.941z M437.459,304.941c0,29.365-24.094,54.212-54.212,54.212
				c-30.118,0-54.212-24.094-54.212-54.212c0-30.118,24.094-54.212,54.212-54.212C413.365,250.729,437.459,275.576,437.459,304.941z
				"/>
			<path d="M426.918,378.729h-86.588c-38.4,0-70.023,31.624-70.023,70.024v40.659c0,4.518,3.012,7.529,7.529,7.529h211.576
				c4.518,0,7.529-3.012,7.529-7.529v-40.659C496.941,410.353,465.318,378.729,426.918,378.729z M481.882,481.882H285.365v-33.129
				c0-30.118,24.847-54.965,54.965-54.965h86.588c30.118,0,54.965,24.847,54.965,54.965V481.882z"/>
			<path d="M228.141,0H15.059C6.776,0,0,6.776,0,15.059v148.329c0,8.282,6.776,15.059,15.059,15.059h20.329l-18.071,51.2
				c-0.753,3.012,0,6.776,3.012,8.282c3.012,2.259,6.776,1.506,9.035,0l73.035-59.482h124.235c8.282,0,15.059-6.776,15.059-15.059
				V13.553C241.694,6.024,235.671,0,228.141,0z M226.635,164.141H99.388c-1.506,0-3.765,0.753-4.518,1.506l-54.212,44.424
				l12.047-36.141c0.753-2.259,0.753-4.518-0.753-6.776c-1.506-2.259-3.765-3.012-6.024-3.012H15.059V15.059h211.576V164.141z"/>
			<path d="M466.071,237.929c6.776,5.271,15.812-2.259,11.294-9.788l-17.318-49.694h19.576c9.035,0,15.812-6.776,15.812-15.812
				V15.812C495.435,6.776,488.659,0,479.624,0H268.8c-9.035,0-15.812,6.776-15.812,15.812v147.576
				c0,9.035,6.776,15.812,15.812,15.812h123.482L466.071,237.929z M268.047,163.388V15.812c0,0,0-0.753,0.753-0.753h210.071
				c0,0,0.753,0,0.753,0.753v147.576c0,0,0,0.753-0.753,0.753h-30.118c-2.259,0-4.518,1.506-6.024,3.012
				c-1.506,1.506-1.506,4.518-0.753,6.776l12.8,36.141l-54.212-44.424c-1.506-0.753-3.012-1.506-4.518-1.506L268.047,163.388z"/>
			<path d="M116.706,121.224c-3.012,0-6.023,0.753-8.282,3.012c-2.259,2.259-3.765,5.271-3.765,8.282s1.506,6.023,3.765,8.282
				s5.271,3.012,8.282,3.012s6.023-0.753,8.282-3.012c2.259-2.259,3.765-5.271,3.765-8.282s-1.506-6.023-3.765-8.282
				C122.729,121.976,119.718,121.224,116.706,121.224z"/>
			<path d="M107.671,51.953c2.259-2.259,6.023-3.765,9.788-3.765s6.776,1.506,9.788,3.765c2.259,2.259,3.765,6.023,3.765,9.788
				s-1.506,6.776-3.765,9.788l-11.294,11.294c-3.012,3.012-5.271,6.023-6.024,8.282c-0.753,2.259-1.506,5.271-1.506,9.035v9.035
				h17.318V102.4c0-3.765,0.753-7.529,3.012-9.788c0.753-0.753,1.506-1.506,3.012-3.012c1.506-1.506,2.259-2.259,4.518-4.518
				c2.259-2.259,3.012-3.012,3.765-3.765c0.753-0.753,2.259-3.012,4.518-5.271c3.012-3.765,5.271-9.035,5.271-15.059
				c0-9.035-3.012-15.812-8.282-21.082c-7.529-3.765-15.059-6.776-24.094-6.776s-16.565,2.259-22.588,7.529
				c-6.024,5.271-9.788,12.047-10.541,21.082h18.824C103.906,57.976,105.412,54.212,107.671,51.953z"/>
			<path d="M440.471,51.953c-3.012-3.012-7.529-3.765-10.541-0.753l-70.776,59.482l-20.329-30.118
				c-2.259-3.765-6.776-4.518-10.541-2.259c-3.765,2.259-4.518,6.776-2.259,10.541l24.847,37.647
				c1.506,1.506,3.012,3.012,5.271,3.012h0.753c1.506,0,3.765-0.753,4.518-1.506l77.553-64.753
				C442.729,59.482,443.482,54.965,440.471,51.953z"/>
		</g>
	</g>
</g>
<g>
</g>
<g>
</g>
<g>
</g>
<g>
</g>
<g>
</g>
<g>
</g>
<g>
</g>
<g>
</g>
<g>
</g>
<g>
</g>
<g>
</g>
<g>
</g>
<g>
</g>
<g>
</g>
<g>
</g>
</svg>
