<?xml version="1.0" encoding="utf-8"?>
<!-- Generator: Adobe Illustrator 19.1.0, SVG Export Plug-In . SVG Version: 6.00 Build 0)  -->
<svg version="1.1" id="&#x421;&#x43B;&#x43E;&#x439;_1" xmlns="http://www.w3.org/2000/svg" xmlns:xlink="http://www.w3.org/1999/xlink" x="0px" y="0px" viewBox="0 0 113.4 42.5" xml:space="preserve">

<g>
	<rect x="0" class="st0" width="113.4" height="34"/>
	<rect x="1.1" y="1.1" class="st1" width="31.8" height="31.8"/>
	<rect x="7.5" y="8.5" class="st0" width="3.6" height="17.5"/>
	<polygon class="st0" points="27.2,8.5 22,8.5 18.3,8.5 13.1,8.5 13.1,11.6 18.3,11.6 18.3,26 22,26 22,11.6 27.2,11.6 	"/>
	<polygon class="st1" points="52,18.2 52,16 42.3,16 42.3,10.7 52.4,10.7 52.4,8.5 39.9,8.5 39.9,26 52.9,26 52.9,23.9 42.3,23.9 
		42.3,18.2 	"/>
	<polygon class="st1" points="66,26.2 61.3,19.5 65.5,13.4 63,13.4 60.1,17.6 57.1,13.4 54.6,13.4 58.8,19.5 54.2,26.2 56.7,26.2 
		60.1,21.3 63.4,26.2 	"/>
	<path class="st1" d="M73.3,13.1c-1.5,0-2.7,0.8-3.6,2v-1.6h-2.1V31h2.1v-6.3c0.9,1,2.2,1.8,3.8,1.8c3.4,0,5.3-3,5.3-5.2
		c0-0.5,0-1.9,0-2.8C78.8,16.1,76.8,13.1,73.3,13.1z M76.5,20.8c-0.1,2.5-1.3,4.1-3.4,4.1c-1.5,0-3.4-1.3-3.4-4.1c0-0.5,0,0,0-2.7
		c0-1.9,1.9-3.4,3.4-3.3c2.4,0,3.4,1.9,3.4,3.7C76.5,20,76.5,20.8,76.5,20.8z"/>
	<path class="st1" d="M99.3,13.5c-0.8,0.2-1.8,0.8-2.2,2.3v-2.4h-2.1v12.8H97v-7.8c0,0,0.5-3.3,4.1-3.1v-1.9
		C101.1,13.4,99.7,13.4,99.3,13.5z"/>
	<path class="st1" d="M107.7,15v-1.6h-2.1V9.8h-2.1v3.6h-1.8V15h1.8c0,0,0,7.1,0,9.2c0,0.5,0.6,2,1.9,2c0.6,0,2.3,0,2.3,0v-1.6
		c-1.9,0.1-2-0.2-2.1-1c0-2.2,0-8.6,0-8.6H107.7z"/>
	<path class="st1" d="M91.7,20.5h0.4c0-0.2,0-0.4,0-0.6c0-3.7-2.3-6.8-5.6-6.8c-3.3,0-6,3-6,6.8c0,3.7,2.7,6.8,6,6.8
		c2.6,0,4.8-1.9,5.7-4.5h-2.3c-0.6,1.6-1.9,2.6-3.3,2.6c-1.9,0-3.5-1.9-3.7-4.3h7.5H91.7z M86.6,14.9c1.8,0,3.3,1.7,3.7,3.9h-7.4
		C83.3,16.6,84.8,14.9,86.6,14.9z"/>
</g>
<g>
	<text transform="matrix(1 0 0 1 0.3314 40.447)" class="st0 st2 st3">Training and examination center</text>
</g>
</svg>
