<?xml version="1.0" encoding="iso-8859-1"?>
<!-- Generator: Adobe Illustrator 19.0.0, SVG Export Plug-In . SVG Version: 6.00 Build 0)  -->
<svg version="1.1" id="Capa_1" xmlns="http://www.w3.org/2000/svg" xmlns:xlink="http://www.w3.org/1999/xlink" x="0px" y="0px" viewBox="0 0 512 512" xml:space="preserve">
<g>
	<g>
		<path d="M504.485,72.141H353.961l-90.447-45.223V7.515C263.515,3.364,260.15,0,256,0s-7.515,3.364-7.515,7.515v19.403
			l-90.447,45.223H7.515C3.365,72.141,0,75.504,0,79.656v32.063c0,4.151,3.365,7.515,7.515,7.515h16.532V384.25
			c0,4.151,3.365,7.515,7.515,7.515h216.924v68.511l-59.637,37.865c-3.457,2.195-4.511,6.916-2.316,10.373
			c2.195,3.457,6.914,4.508,10.372,2.317l51.581-32.751v26.406c0,4.151,3.365,7.515,7.515,7.515s7.515-3.364,7.515-7.515v-26.52
			l52.628,32.892c3.754,2.346,8.846,0.855,10.76-3.124c1.637-3.405,0.407-7.621-2.794-9.621l-60.593-37.871v-68.477h116.394
			c4.15,0,7.515-3.364,7.515-7.515s-3.365-7.515-7.515-7.515H39.076V119.233h433.847v257.503h-56.277
			c-4.15,0-7.515,3.364-7.515,7.515s3.365,7.515,7.515,7.515h63.792c4.15,0,7.515-3.364,7.515-7.515V119.233h16.532
			c4.15,0,7.515-3.364,7.515-7.515V79.656C512,75.504,508.635,72.141,504.485,72.141z M263.515,71.64V43.72l56.841,28.42H263.49
			C263.501,71.975,263.515,71.809,263.515,71.64z M248.485,43.72V71.64c0,0.169,0.014,0.335,0.025,0.501h-56.866L248.485,43.72z
			 M496.971,104.203H15.029V87.17h481.941V104.203z"/>
	</g>
</g>
<g>
	<g>
		<path d="M384.25,320.626h-40.579V175.843c0-4.151-3.365-7.515-7.515-7.515h-32.063c-4.15,0-7.515,3.364-7.515,7.515v144.783
			h-17.033v-112.72c0-4.151-3.365-7.515-7.515-7.515h-32.063c-4.15,0-7.515,3.364-7.515,7.515v112.72h-17.033v-88.673
			c0-4.151-3.365-7.515-7.515-7.515h-32.063c-4.15,0-7.515,3.364-7.515,7.515v88.673h-33.065V159.812
			c0-4.151-3.365-7.515-7.515-7.515s-7.515,3.364-7.515,7.515v168.329c0,4.151,3.365,7.515,7.515,7.515H384.25
			c4.15,0,7.515-3.364,7.515-7.515C391.765,323.99,388.401,320.626,384.25,320.626z M200.391,320.626h-17.033v-81.159h17.033
			V320.626z M264.517,320.626h-17.033V215.421h17.033V320.626z M328.642,320.626h-17.033V183.358h17.033V320.626z"/>
	</g>
</g>
<g>
</g>
<g>
</g>
<g>
</g>
<g>
</g>
<g>
</g>
<g>
</g>
<g>
</g>
<g>
</g>
<g>
</g>
<g>
</g>
<g>
</g>
<g>
</g>
<g>
</g>
<g>
</g>
<g>
</g>
</svg>
