<?xml version="1.0" encoding="iso-8859-1"?>
<!-- Generator: Adobe Illustrator 19.0.0, SVG Export Plug-In . SVG Version: 6.00 Build 0)  -->
<svg version="1.1" id="Capa_1" xmlns="http://www.w3.org/2000/svg" xmlns:xlink="http://www.w3.org/1999/xlink" x="0px" y="0px" viewBox="0 0 512 512" xml:space="preserve">
<path d="M512,256c0,141.385-114.615,256-256,256S0,397.385,0,256C0,152.691,61.2,63.666,149.326,23.218
	C181.802,8.307,217.924,0,256,0c82.829,0,156.473,39.34,203.274,100.352C492.345,143.485,512,197.454,512,256z"/>
<path d="M459.274,100.352C458,189.816,385.076,261.945,295.309,261.945
	c-90.561,0-163.976-73.415-163.976-163.976c0-26.927,6.489-52.339,17.993-74.752C181.802,8.307,217.924,0,256,0
	C338.829,0,412.473,39.34,459.274,100.352z"/>
<path d="M373.596,140.453l-14.253,20.345c-15.124,21.588-44.885,26.827-66.472,11.703l-84.487-59.191
	l69.023-98.52l84.487,59.191C383.481,89.105,388.72,118.866,373.596,140.453z"/>
<path d="M309.237,149.14l-84.487-59.191l-16.366,23.361l84.487,59.191
	c21.588,15.124,51.348,9.885,66.472-11.703l14.253-20.345c0.354-0.506,0.686-1.02,1.018-1.534
	C359.187,159.251,330.317,163.91,309.237,149.14z"/>
<g>
	
		<rect x="385.894" y="113.948" transform="matrix(-0.5738 0.819 -0.819 -0.5738 764.4645 -54.5908)" width="21.086" height="115.336"/>
	<path d="M441.517,185.347l-16.783,23.956c-5.775,8.243-3.774,19.606,4.469,25.382l12.876,9.022
		l37.696-53.806l-12.876-9.021C458.656,175.103,447.293,177.104,441.517,185.347z"/>
	<path d="M256.426,5.112l-64.305,91.786c-3.798,5.422-2.483,12.897,2.939,16.695l0,0
		c5.422,3.798,12.897,2.483,16.695-2.939l64.306-91.786c3.798-5.422,2.483-12.897-2.939-16.695l0,0
		C267.7-1.627,260.226-0.311,256.426,5.112z"/>
</g>
<path d="M216.35,83.206c-5.422-3.798-6.739-11.273-2.939-16.695l-21.289,30.387
	c-3.798,5.422-2.483,12.897,2.939,16.695c5.422,3.798,12.897,2.483,16.695-2.939l21.289-30.387
	C229.246,85.689,221.772,87.004,216.35,83.206z"/>
<path d="M418.657,178.625l-64.472,163.308l-26.992-10.654l-10.287-4.071l64.455-163.308
	c4.071-10.287,15.714-15.349,26.02-11.278c2.164,0.862,4.108,2.035,5.757,3.503C419.391,161.516,421.866,170.483,418.657,178.625z"/>
<path d="M418.657,178.625l-64.472,163.308l-26.992-10.654l64.216-162.722
	c3.52-8.875,12.67-13.863,21.73-12.432C419.391,161.516,421.866,170.483,418.657,178.625z"/>
<g>
	<polygon points="354.19,341.925 316.901,327.205 273.981,396.227 305.773,463.281 	"/>
	<path d="M305.768,394.689v112.473c-5.914,1.16-11.891,2.132-17.93,2.873h-63.687
		c-27.387-3.396-53.436-11.118-77.427-22.465c-3.918-1.849-7.784-3.803-11.588-5.841c-9.843-5.287-19.31-11.191-28.327-17.669
		c2.581-37.898,33.479-68.023,71.711-69.371c0.888-0.042,1.787-0.063,2.696-0.063L305.768,394.689z"/>
	<path d="M305.768,438.094v69.068C289.667,510.339,273.032,512,256,512c-39.09,0-76.142-8.756-109.275-24.43
		v-49.476c0-3.772,0.481-7.429,1.379-10.909c3.877-14.984,15.538-26.833,30.417-30.96c3.709-1.055,7.617-1.599,11.672-1.599h72.119
		c4.044,0,7.952,0.543,11.672,1.599C292.321,401.314,305.768,418.137,305.768,438.094z"/>
</g>
<g>
	<path d="M316.901,327.205l-33.83,53.188c-5.655,8.891-15.463,14.273-26,14.264
		c-26.759-0.023-75.851-0.033-75.851-0.033c-0.908,0-1.815,0.021-2.702,0.064v3.508c0,26.31,20.896,48.368,47.203,48.654
		c21.823,0.237,40.347-14.244,46.27-34.11c11.542-5.379,20.96-14.455,26.762-25.79l28.194-55.082L316.901,327.205z"/>
	<path d="M209.721,394.627c-0.909,0-1.818,0.021-2.706,0.063c-24.482,0.867-45.965,13.542-58.911,32.496
		c-8.182,11.964-12.967,26.436-12.967,42.026v12.518c-9.843-5.287-19.31-11.191-28.327-17.669
		c2.581-37.898,33.479-68.023,71.711-69.371c0.888-0.042,1.787-0.063,2.696-0.063L209.721,394.627L209.721,394.627z"/>
</g>
<g>
	<path d="M261.309,361.457v37.663c0,19.364-15.697,35.061-35.061,35.061l0,0
		c-19.364,0-35.061-15.698-35.061-35.061v-37.663L261.309,361.457L261.309,361.457z"/>
	<circle cx="150.559" cy="299.844" r="21.67"/>
	<circle cx="301.944" cy="299.844" r="21.67"/>
</g>
<path d="M304.314,237.988l-156.131-8.311v87.09c0,43.115,34.951,78.065,78.065,78.065l0,0
	c43.115,0,78.065-34.951,78.065-78.065V237.988z"/>
<g>
	<path d="M226.249,323.838L226.249,323.838c-4.361,0-7.896-3.535-7.896-7.896v-61.924h15.793v61.924
		C234.145,320.303,230.61,323.838,226.249,323.838z"/>
	<path d="M179.334,316.766v-85.431l-31.15-1.658v87.09c0,43.115,34.951,78.065,78.065,78.065l0,0
		c5.334,0,10.542-0.538,15.575-1.558C206.173,386.054,179.334,354.545,179.334,316.766z"/>
</g>
<path d="M313.812,235.071v39.326c0,3.198-1.295,6.091-3.388,8.185c-2.154,2.157-5.153,3.463-8.45,3.388
	c-6.329-0.142-11.312-5.477-11.312-11.806v-5.944c0-4.709-1.908-8.968-4.995-12.056c-3.087-3.087-7.346-4.995-12.056-4.995
	c-7.346,0-14.494,2.466-20.221,7.073c-7.425,5.973-16.865,9.55-27.143,9.55c-10.274,0-19.714-3.578-27.139-9.55
	c-0.981-0.792-2.006-1.516-3.068-2.177c-0.012-0.011-0.027-0.02-0.04-0.028c-2.019-1.259-4.164-2.28-6.396-3.059
	c-3.427-1.191-7.049-1.809-10.726-1.809c-9.411,0-17.042,7.642-17.042,17.058v6.174c0,3.194-1.295,6.091-3.392,8.185
	c-2.094,2.094-4.987,3.388-8.185,3.388c-6.392,0-11.573-5.181-11.573-11.576v-39.325c0-34.434,27.911-62.348,62.345-62.348h50.431
	C285.897,172.723,313.812,200.637,313.812,235.071z"/>
<path d="M241.577,172.721c-34.437,0-62.339,27.918-62.339,62.354v16.111
	c-0.124-0.016-0.234-0.016-0.358-0.016c-9.42,0-17.046,7.642-17.046,17.062v6.161c0,3.197-1.295,6.098-3.384,8.188
	c-2.105,2.09-4.99,3.384-8.188,3.384c-6.395,0-11.572-5.177-11.572-11.572v-39.318c0-34.437,27.902-62.354,62.339-62.354H241.577z"/>
<path d="M255.556,332.138c0,2.892-0.424,5.685-1.272,8.304c-1.221,4.04-3.367,7.705-6.184,10.723
	c-5.112,5.561-12.468,9.027-20.597,9.027s-15.485-3.466-20.597-9.027c-2.818-3.018-4.962-6.683-6.184-10.723
	c-0.847-2.619-1.272-5.411-1.272-8.304H255.556z"/>
<g>
	<path d="M273.924,301.611c0-7.848-6.362-14.211-14.211-14.211c-7.848,0-14.211,6.362-14.211,14.211"/>
	<path d="M206.995,301.611c0-7.848-6.362-14.211-14.211-14.211c-7.848,0-14.211,6.362-14.211,14.211"/>
</g>
<path d="M429.017,171.496c0,17.276-13.996,31.273-31.273,31.273c-1.82,0-3.617-0.157-5.347-0.471
	c-14.715-2.516-25.904-15.344-25.904-30.801c0-17.254,13.996-31.251,31.251-31.251c10.132,0,19.141,4.808,24.826,12.289
	C426.613,157.792,429.017,164.352,429.017,171.496z"/>
<path d="M429.017,171.496c0,17.276-13.996,31.273-31.273,31.273c-1.82,0-3.617-0.157-5.347-0.471
	c-4.044-5.257-6.448-11.84-6.448-18.984c0-17.276,13.996-31.251,31.251-31.251c1.842,0,3.639,0.157,5.37,0.471
	C426.613,157.792,429.017,164.352,429.017,171.496z"/>
<polyline points="312.065,336.522 350.081,352.225 354.19,341.925 316.901,327.205 "/>
<path d="M352.003,97.789L352.003,97.789c-2.751,3.927-8.164,4.88-12.091,2.128l-59.925-41.983
	c-3.927-2.751-4.88-8.164-2.128-12.091l0,0c2.751-3.927,8.164-4.88,12.091-2.128l59.925,41.983
	C353.801,88.449,354.754,93.862,352.003,97.789z"/>
<g>
</g>
<g>
</g>
<g>
</g>
<g>
</g>
<g>
</g>
<g>
</g>
<g>
</g>
<g>
</g>
<g>
</g>
<g>
</g>
<g>
</g>
<g>
</g>
<g>
</g>
<g>
</g>
<g>
</g>
</svg>
